<?xml version="1.0" encoding="utf-8"?>
<!-- Generator: Adobe Illustrator 23.0.2, SVG Export Plug-In . SVG Version: 6.00 Build 0)  -->
<svg version="1.1" id="圖層_1" xmlns="http://www.w3.org/2000/svg" xmlns:xlink="http://www.w3.org/1999/xlink" x="0px" y="0px"
	 viewBox="0 0 27 27" style="enable-background:new 0 0 27 27;" xml:space="preserve">
<style type="text/css">
	.st0{fill:#00829B;}
</style>
<path id="Path_414" class="st0" d="M25.7,12.7L14,1.3C13.7,1,13.3,1,13,1.3L1.3,12.7C1,13,1,13.5,1.3,13.8C1.4,13.9,1.6,14,1.8,14
	h2.3v11.4c0,0.3,0.2,0.5,0.5,0.5c0,0,0,0,0,0h17.6c0.3,0,0.5-0.2,0.5-0.5l0,0V14h2.3c0.4,0,0.8-0.3,0.8-0.8
	C25.9,13,25.8,12.8,25.7,12.7L25.7,12.7z M16.6,18.7v5.7h-6.2v-5.7c0-0.3,0.2-0.5,0.5-0.5c0,0,0,0,0,0h5.2
	C16.4,18.2,16.6,18.4,16.6,18.7C16.6,18.7,16.6,18.7,16.6,18.7z"/>
</svg>
