<?xml version="1.0" encoding="utf-8"?>
<!-- Generator: Adobe Illustrator 23.0.6, SVG Export Plug-In . SVG Version: 6.00 Build 0)  -->
<svg version="1.1" id="圖層_1" xmlns="http://www.w3.org/2000/svg" xmlns:xlink="http://www.w3.org/1999/xlink" x="0px" y="0px"
	 viewBox="0 0 54 54" style="enable-background:new 0 0 54 54;" xml:space="preserve">
<style type="text/css">
	.st0{fill:#FFFFFF;}
	.st1{fill:#5F5E5E;}
	.st2{fill:#707070;}
</style>
<g id="Group_1189" transform="translate(-1648 -420)">
	<g id="Group_1187" transform="translate(1404.211 -6.133)">
		<path class="st0" d="M291.4,478.6h-41.2c-2.7,0-4.9-2.2-4.9-4.9v-41.3c0-2.7,2.2-4.9,4.9-4.9h41.3c2.7,0,4.9,2.2,4.9,4.9v41.4
			C296.3,476.4,294.1,478.6,291.4,478.6z"/>
		<path id="Path_872" class="st1" d="M284.1,471h-27.7v-25h27.7V471z M258.5,469.1H282v-21h-23.5V469.1z"/>
		<path id="Path_873" class="st1" d="M277.5,442.9h-14.3v-4.7c0-1.7,1.4-3.1,3.1-3.1h8c1.7,0,3.1,1.4,3.1,3.1L277.5,442.9z
			 M265.2,440.9h10.2v-2.6c0-0.6-0.5-1.1-1.1-1.1h-8c-0.6,0-1.1,0.5-1.1,1.1L265.2,440.9z"/>
		<rect id="Rectangle_1038" x="262.6" y="450.9" class="st1" width="2.1" height="15.2"/>
		<rect id="Rectangle_1039" x="269.3" y="450.9" class="st1" width="2.1" height="15.2"/>
		<rect id="Rectangle_1040" x="276" y="450.9" class="st1" width="2.1" height="15.2"/>
		<path id="Path_874" class="st1" d="M285.9,448.1h-31.2v-5.5c0-0.9,0.8-1.7,1.7-1.7h27.8c0.9,0,1.7,0.8,1.7,1.7V448.1z M256.7,446
			h27.1v-3.1h-27.1V446L256.7,446z"/>
	</g>
	<g id="Rectangle_1041" transform="translate(1648 420)">
		<path class="st2" d="M47.8,52.5H6.2c-2.6,0-4.7-2.1-4.7-4.7V6.2c0-2.6,2.1-4.7,4.7-4.7h41.6c2.6,0,4.7,2.1,4.7,4.7v41.6
			C52.5,50.4,50.4,52.5,47.8,52.5z M6.2,2.4c-2.1,0-3.8,1.7-3.8,3.8v41.6c0,2.1,1.7,3.8,3.8,3.8h41.6c2.1,0,3.8-1.7,3.8-3.8V6.2
			c0-2.1-1.7-3.8-3.8-3.8H6.2z"/>
	</g>
</g>
</svg>
