<?xml version="1.0" encoding="utf-8"?>
<!-- Generator: Adobe Illustrator 23.0.6, SVG Export Plug-In . SVG Version: 6.00 Build 0)  -->
<svg version="1.1" id="圖層_1" xmlns="http://www.w3.org/2000/svg" xmlns:xlink="http://www.w3.org/1999/xlink" x="0px" y="0px"
	 viewBox="0 0 54 54" style="enable-background:new 0 0 54 54;" xml:space="preserve">
<style type="text/css">
	.st0{fill-rule:evenodd;clip-rule:evenodd;fill:#2C3D50;}
	.st1{fill:none;}
	.st2{fill:#707070;}
</style>
<g id="Group_1188" transform="translate(-1721 -427)">
	<path id="Path_875" class="st0" d="M1750.7,438.3l6.2,3.2c1.5,0.8,2.2,2.5,1.5,4c-1.5,3-7.6,14.8-9.8,19.1c-3,1.7-6.9,4-9.7,5.7
		c-0.8,0.4-1.1,0.3-1.3-0.7c-0.4-3.8-0.6-7.5-0.8-11.1c3.3-6.4,7.5-14.4,10-19.2C1747.6,437.9,1749.3,437.6,1750.7,438.3
		L1750.7,438.3z M1756.2,445.3c0.2-0.3,0-0.7-0.3-0.8c-0.3-0.2-0.7,0-0.8,0.3l-7.9,15.3c-0.2,0.3,0,0.7,0.3,0.8
		c0.3,0.2,0.7,0,0.8-0.3l0,0L1756.2,445.3z M1751.5,442.9c0.2-0.3,0-0.7-0.3-0.8c-0.3-0.2-0.7,0-0.8,0.3l-7.9,15.3
		c-0.2,0.3,0,0.7,0.3,0.8c0.3,0.2,0.7,0,0.8-0.3L1751.5,442.9z M1753.9,444.1c0.2-0.3,0-0.7-0.3-0.8c-0.3-0.2-0.7,0-0.8,0.3l0,0
		l-7.9,15.3c-0.2,0.3,0,0.7,0.3,0.8c0.3,0.2,0.7,0,0.8-0.3L1753.9,444.1z M1749.1,441.7c0.2-0.3,0-0.7-0.3-0.8
		c-0.3-0.2-0.7,0-0.8,0.3l0,0l-7.9,15.3c-0.2,0.3,0,0.7,0.3,0.8c0.3,0.2,0.7,0,0.8-0.3L1749.1,441.7L1749.1,441.7z M1738.1,460.4
		c0.2,2,0.3,3.9,0.5,5.9c0.4,0.9,1.3,1.5,2.4,1.2c1.7-1,3.4-2.1,5.2-3c0.2-0.1,0.9-0.9-0.2-1.5c-1.9-0.7-4.8-2-6.3-3.4
		c-0.5-0.2-1.1,0-1.3,0.5C1738.2,460.2,1738.1,460.3,1738.1,460.4z"/>
	<g id="Rectangle_1042" transform="translate(1721 427)">
		<path class="st1" d="M6.2,1.5h41.6c2.6,0,4.7,2.1,4.7,4.7v41.6c0,2.6-2.1,4.7-4.7,4.7H6.2c-2.6,0-4.7-2.1-4.7-4.7V6.2
			C1.5,3.6,3.6,1.5,6.2,1.5z"/>
		<path class="st2" d="M47.8,52.5H6.2c-2.6,0-4.7-2.1-4.7-4.7V6.2c0-2.6,2.1-4.7,4.7-4.7h41.6c2.6,0,4.7,2.1,4.7,4.7v41.6
			C52.5,50.4,50.4,52.5,47.8,52.5z M6.2,2.4c-2.1,0-3.8,1.7-3.8,3.8v41.6c0,2.1,1.7,3.8,3.8,3.8h41.6c2.1,0,3.8-1.7,3.8-3.8V6.2
			c0-2.1-1.7-3.8-3.8-3.8H6.2z"/>
	</g>
</g>
</svg>
