<svg id="圖層_1" data-name="圖層 1" xmlns="http://www.w3.org/2000/svg" viewBox="0 0 195.87 41.77"><defs><style>.cls-1{fill:#0a9796;}.cls-2{fill:#1387bb;}.cls-3{fill:#231815;}</style></defs><title>fb_logo</title><path class="cls-1" d="M33.55,21.31h0s0,.12.35.36a7.74,7.74,0,0,1,3.34,6.94c0,4.33-3.78,7.48-8.06,7.48v6c7.44,0,14.21-5.3,14.21-12.85a13.41,13.41,0,0,0-2.59-8,7.62,7.62,0,0,0,.8-1.15c.45-.79.53-1.78.53-5V1H23V12.2h-6.1v6.19h12.3V7.28h6.87v9.58a5,5,0,0,1-2.6,4.45" transform="translate(-3.79 -0.95)"/><path class="cls-2" d="M17.05,1H15.28A12,12,0,0,0,6.4,4.62C4,7.33,3.79,9.74,3.79,13.71V42.07H23.17V30.94H29.3V24.68H17V35.91H10V12.4S9.5,7.3,15.64,7.15L17,7.09Z" transform="translate(-3.79 -0.95)"/><path class="cls-3" d="M79.94,24.3v4.78H61V22.52H77.66c2.42,0,2.28,1.78,2.28,1.78m-3.67,2.56v-2H64.43v2Z" transform="translate(-3.79 -0.95)"/><path class="cls-3" d="M57.47,42.06V30.46H81a3.1,3.1,0,0,1,1.15.33A2.61,2.61,0,0,1,83.6,33v9H79.67v-.8H61.39v.8H57.47m22.2-7.39V33.09H72.34v1.58h7.33m-10.94,0v-1.6H61.41v1.6h7.32m10.94,4V37.13H72.34V38.7h7.33m-10.94,0V37.14H61.41v1.57Z" transform="translate(-3.79 -0.95)"/><rect class="cls-3" x="57.2" y="17.84" width="18.96" height="2.47"/><path class="cls-3" d="M56,21.88v-7.6H68.57v-2h3.8v1.84h9.9s2.54.19,2.54,2.31v5.41H81.36V17.53H59.67v4.35Z" transform="translate(-3.79 -0.95)"/><path class="cls-3" d="M120.3,23.47l2.4-7.93A2.16,2.16,0,0,0,120.6,13h-10v29.2h3.66V36.88s1.09,1.63,1.67,2.45a6.09,6.09,0,0,0,2.9-.73,8.08,8.08,0,0,0,4.36-6.12,12.48,12.48,0,0,0-2.85-9m-.83,9.3a5.26,5.26,0,0,1-3.18,3.06,4.12,4.12,0,0,1-2.14.09V16.59h4.67c-.7,2.52-1.58,5.14-2.37,7.62.25.46.8.88,1.06,1.39,1.38,2.11,2.7,4.5,2,7.18Z" transform="translate(-3.79 -0.95)"/><path class="cls-3" d="M109.31,25.91V22.14h-5.24V19.28h5.12V15.66h-5.11V12.25h-4v3.41h-6v3.71h6v2.79h-6v3.7h6v2.75H94.22v3.77h5.72a10.22,10.22,0,0,1-3.57,6.9l2.16,2.88c5.33-3,5.57-9.75,5.57-9.75h5.2v-3.8h-5.23v-2.7Z" transform="translate(-3.79 -0.95)"/><polygon class="cls-3" points="179.43 15.35 168.45 15.35 168.45 17.59 194.01 17.59 194.01 15.35 182.96 15.35 182.96 14.26 195.11 14.26 195.11 12.04 182.96 12.04 182.96 11.09 179.43 11.09 179.43 12.04 167.43 12.04 167.43 14.26 179.43 14.26 179.43 15.35"/><path class="cls-3" d="M199.19,19.74a2.76,2.76,0,0,0-1.37-.27H171.47v2.26h24.39a1.16,1.16,0,0,1,.68.15c.24.18.2.62.2.62v2.26h2.91V20.71A1.18,1.18,0,0,0,199.19,19.74Z" transform="translate(-3.79 -0.95)"/><polygon class="cls-3" points="167.72 25.27 167.72 27.47 193.58 27.47 193.58 25.27 182.95 25.27 182.95 24.14 190.75 24.14 190.75 21.86 170.37 21.86 170.37 24.14 179.43 24.14 179.43 25.27 167.72 25.27"/><path class="cls-3" d="M170.75,31.86h21.81v1.65H185v2.37h7.52v3.06c0,1.08-2.18,1.21-3.51,1.13l1.34,2.65c1.29,0,3.93-.27,5.22-1.62.65-.69.48-2.12.48-5.22h2.65V33.51h-2.65V31.86h3.57V29.57H170.75Z" transform="translate(-3.79 -0.95)"/><path class="cls-3" d="M182.59,32.72h-9.88v8.43h3v-.77h5v.77h3V33.81a1.1,1.1,0,0,0-.29-.87,1.25,1.25,0,0,0-.77-.23m-1.91,3.18v2.2h-5v-3H180a1,1,0,0,1,.52.29.88.88,0,0,1,.13.52Z" transform="translate(-3.79 -0.95)"/><polygon class="cls-3" points="183.06 35.42 180.89 37.17 183.2 40.07 185.37 38.32 183.06 35.42"/><path class="cls-3" d="M146.52,25.9c-.43,1.26-.92,2.5-1.47,3.71A29.23,29.23,0,0,1,133.57,42l-2.73-2.86a24.56,24.56,0,0,0,6.22-4.59q7.62-7.68,7.61-20.4V12.57h3.93s-.07.92-.1,1.57c-.07,1-.09,2.71-.07,2.79a31.1,31.1,0,0,0,1,6.72q2.69,8.7,12.91,15.94l-3.25,2.5c-1.59-1.32-3-2.5-4.07-3.54Q148.66,32.36,146.52,25.9Z" transform="translate(-3.79 -0.95)"/></svg>