<?xml version="1.0" encoding="utf-8"?>
<!-- Generator: Adobe Illustrator 24.1.2, SVG Export Plug-In . SVG Version: 6.00 Build 0)  -->
<svg version="1.1" id="圖層_1" xmlns="http://www.w3.org/2000/svg" xmlns:xlink="http://www.w3.org/1999/xlink" x="0px" y="0px"
	 viewBox="0 0 100 100" style="enable-background:new 0 0 100 100;" xml:space="preserve">
<style type="text/css">
	.st0{fill:#FFFFFF;}
</style>
<g>
	<path class="st0" d="M86.6,50H63.7c-0.9,0-1.6,0.7-1.6,1.6v19.6c0,0.9,0.7,1.6,1.6,1.6h22.9c0.9,0,1.6-0.7,1.6-1.6V51.6
		C88.2,50.7,87.5,50,86.6,50z M84.9,69.6H65.3V59.3l9,5.1c0.5,0.3,1.1,0.3,1.6,0l9-5.1V69.6L84.9,69.6z M84.9,55.6l-9.8,5.6
		l-9.8-5.6v-2.3h19.6C84.9,53.3,84.9,55.6,84.9,55.6z"/>
	<path class="st0" d="M11.8,76.1c0,0.3,0.1,0.6,0.2,0.9h-0.2l0,0c0,1.4,1.1,2.5,2.5,2.5H73l0,0c1.4,0,2.5-1.1,2.5-2.5h-0.2
		c0.1-0.3,0.2-0.6,0.2-0.9H11.8z"/>
	<path class="st0" d="M19.9,72.9c0-0.3-0.1-0.6-0.1-0.9h0.1c-0.1-2.9-2.5-5.2-5.4-5.4l-2.7,8.1l0.3-0.1l-0.3,1L19.9,72.9z"/>
	<path class="st0" d="M57.5,41.9l8.5-8.5L65.6,33l0.5-0.5l-1.6-1.6c0.6-1.1,0.9-2.2,0.8-3.4c0.2-1.9-0.6-3.9-2.3-5.1
		c-2.1-1.6-5-1.6-7.1,0l-2-2L45.5,29l0.5,0.5L45.5,30L57.5,41.9z"/>
	<polygon class="st0" points="51.9,47.6 55.3,44.2 54.8,43.7 55.3,43.3 43.2,31.2 39.8,34.6 40.3,35.1 39.8,35.5 	"/>
	<path class="st0" d="M22.8,72l7.1-2.4l19.8-19.8l-0.5-0.5l0.5-0.5L37.6,36.9L17.8,56.6l-2.4,7.1c0.1,0,0.2,0,0.3,0.1l-0.3,0.9
		C19.3,65.2,22.2,68.2,22.8,72z"/>
</g>
</svg>
